<svg width="64" height="47" viewBox="0 0 64 47" fill="none" xmlns="http://www.w3.org/2000/svg">
<g clip-path="url(#clip0_73_147)">
<path d="M26.9178 46.9999C26.6421 46.9987 26.3781 46.8876 26.1838 46.6909L3.85761 23.3411C2.00558 21.4207 0.749118 18.9996 0.241452 16.3732C-0.266215 13.7469 -0.00314528 11.0287 0.998571 8.55008C1.91977 6.13368 3.52112 4.03969 5.60675 2.52423C7.69238 1.00878 10.1719 0.13755 12.742 0.0171143C13.0151 0.0171143 13.2882 0.0171143 13.5954 0.0171143C16.2326 0.0132541 18.8303 0.66192 21.1595 1.90595C23.4887 3.14998 25.4779 4.95118 26.9519 7.15081C28.4253 4.95064 30.4144 3.14903 32.7438 1.90494C35.0731 0.660845 37.671 0.0125031 40.3083 0.0171143C40.5814 0.0171143 40.8631 0.0171143 41.1618 0.0171143C43.7233 0.146253 46.1922 1.02158 48.2681 2.53655C50.344 4.05152 51.9372 6.14079 52.854 8.55008C53.8623 11.0275 54.1289 13.7474 53.6209 16.3752C53.113 19.003 51.8527 21.4242 49.995 23.3411L47.4346 26.0452C47.249 26.2388 46.9946 26.3502 46.7273 26.355C46.46 26.3599 46.2018 26.2577 46.0094 26.071C45.817 25.8843 45.7062 25.6284 45.7014 25.3595C45.6966 25.0907 45.7982 24.8309 45.9838 24.6374L48.5441 21.9333C50.1271 20.293 51.2008 18.2245 51.6343 15.9805C52.0677 13.7365 51.8421 11.4141 50.985 9.29693C50.2201 7.23767 48.8676 5.45149 47.0973 4.16252C45.3269 2.87355 43.2175 2.1392 41.0338 2.05163C40.7948 2.05163 40.5473 2.05163 40.3083 2.05163C37.7443 2.05006 35.2284 2.75183 33.0313 4.08142C30.8342 5.41101 29.0392 7.31808 27.8395 9.59739C27.7585 9.7562 27.6365 9.89018 27.4864 9.98533C27.3362 10.0805 27.1634 10.1333 26.986 10.1382C26.802 10.1382 26.6213 10.0879 26.4635 9.99263C26.3057 9.89737 26.1765 9.76076 26.0899 9.59739C24.8934 7.30854 23.096 5.39335 20.8932 4.05998C18.6904 2.7266 16.1664 2.02605 13.5954 2.03446C13.3479 2.03446 13.109 2.03446 12.87 2.03446C10.6863 2.12203 8.57688 2.85638 6.80652 4.14535C5.03616 5.43432 3.68369 7.2205 2.91883 9.27976C2.0606 11.3961 1.83359 13.718 2.26552 15.962C2.69746 18.206 3.76964 20.2749 5.35114 21.9161L26.9519 44.5019L35.6485 35.4023C35.8389 35.2249 36.0895 35.1276 36.349 35.1302C36.6085 35.1329 36.8571 35.2354 37.0439 35.4166C37.2306 35.5979 37.3413 35.8441 37.3532 36.1049C37.3651 36.3656 37.2774 36.6211 37.1079 36.8188L27.72 46.6737C27.6188 46.7847 27.4943 46.8715 27.3555 46.9279C27.2167 46.9844 27.0672 47.009 26.9178 46.9999Z" fill="#48BB90"/>
<path d="M5.14624 18.1218C4.91563 18.1216 4.69196 18.0424 4.51203 17.8973C4.3321 17.7522 4.20663 17.5498 4.15624 17.3235C3.58528 14.7501 3.90313 12.0578 5.05739 9.69053C6.21165 7.32322 8.13343 5.42219 10.5059 4.30084C10.6269 4.24447 10.7578 4.21264 10.8911 4.20715C11.0244 4.20167 11.1574 4.22264 11.2826 4.26888C11.4078 4.31511 11.5228 4.3857 11.6209 4.47662C11.719 4.56753 11.7983 4.67699 11.8543 4.79874C11.9104 4.92049 11.942 5.05215 11.9475 5.1862C11.9529 5.32026 11.9321 5.45408 11.8861 5.58003C11.8401 5.70598 11.77 5.82159 11.6796 5.92026C11.5892 6.01892 11.4804 6.09872 11.3593 6.15509C9.42121 7.09769 7.85426 8.66811 6.91012 10.6142C5.96599 12.5602 5.69944 14.7689 6.1533 16.8857C6.2091 17.1497 6.15874 17.4252 6.01322 17.652C5.8677 17.8788 5.63884 18.0385 5.37666 18.0961C5.30125 18.1145 5.22383 18.1231 5.14624 18.1218Z" fill="#48BB90"/>
<path d="M44.5157 35.4967H44.3194C44.1373 35.4614 43.9684 35.3762 43.8313 35.2505C43.6943 35.1248 43.5944 34.9634 43.5428 34.7842L40.129 22.8604L35.9215 32.7926C35.8467 32.9724 35.7219 33.1267 35.5621 33.237C35.4023 33.3472 35.2143 33.4088 35.0206 33.4142C34.8269 33.4196 34.6357 33.3687 34.47 33.2676C34.3044 33.1665 34.1712 33.0195 34.0866 32.8441L30.0156 24.6545L27.1054 31.3247C27.025 31.5055 26.8945 31.6591 26.7295 31.7672C26.5645 31.8753 26.372 31.9333 26.1751 31.9342H19.8852C19.7446 31.9472 19.6028 31.9306 19.469 31.8853C19.3351 31.8401 19.2121 31.7673 19.1077 31.6716C19.0034 31.5759 18.9201 31.4593 18.8631 31.3294C18.8061 31.1994 18.7766 31.059 18.7766 30.9169C18.7766 30.7749 18.8061 30.6344 18.8631 30.5045C18.9201 30.3745 19.0034 30.2579 19.1077 30.1622C19.2121 30.0665 19.3351 29.9937 19.469 29.9485C19.6028 29.9033 19.7446 29.8867 19.8852 29.8997H25.518L29.0342 21.8474C29.1095 21.67 29.2341 21.5181 29.3931 21.41C29.552 21.3019 29.7385 21.2422 29.9303 21.2379C30.1236 21.2296 30.3151 21.279 30.4806 21.3798C30.6461 21.4806 30.7783 21.6283 30.8605 21.8045L34.9315 29.9426L39.3865 19.418C39.4694 19.2263 39.6089 19.0648 39.786 18.9554C39.9631 18.8459 40.1693 18.7938 40.3768 18.8059C40.5843 18.8181 40.7831 18.894 40.9463 19.0234C41.1096 19.1528 41.2294 19.3295 41.2897 19.5296L44.9765 32.3033L51.6334 23.9163C51.7284 23.7966 51.8492 23.7004 51.9868 23.635C52.1244 23.5695 52.275 23.5365 52.4272 23.5386H60.185C60.3256 23.5256 60.4674 23.5422 60.6012 23.5874C60.7351 23.6326 60.8581 23.7054 60.9625 23.8011C61.0668 23.8969 61.1501 24.0134 61.2071 24.1434C61.2641 24.2733 61.2936 24.4138 61.2936 24.5558C61.2936 24.6979 61.2641 24.8383 61.2071 24.9683C61.1501 25.0982 61.0668 25.2148 60.9625 25.3105C60.8581 25.4062 60.7351 25.479 60.6012 25.5242C60.4674 25.5695 60.3256 25.5861 60.185 25.5731H52.8539L45.2838 35.1104C45.1908 35.2265 45.0741 35.3211 44.9416 35.3877C44.809 35.4544 44.6638 35.4915 44.5157 35.4967Z" fill="#48BB90"/>
<path d="M59.3145 47H8.7307C8.47851 46.9767 8.24408 46.8594 8.0734 46.6712C7.90272 46.483 7.80811 46.2375 7.80811 45.9827C7.80811 45.728 7.90272 45.4824 8.0734 45.2943C8.24408 45.1061 8.47851 44.9888 8.7307 44.9655H59.3145C59.4551 44.9525 59.5969 44.9691 59.7308 45.0143C59.8646 45.0595 59.9877 45.1323 60.092 45.228C60.1963 45.3238 60.2796 45.4403 60.3367 45.5703C60.3937 45.7002 60.4231 45.8407 60.4231 45.9827C60.4231 46.1248 60.3937 46.2653 60.3367 46.3952C60.2796 46.5251 60.1963 46.6417 60.092 46.7374C59.9877 46.8332 59.8646 46.906 59.7308 46.9512C59.5969 46.9964 59.4551 47.013 59.3145 47Z" fill="#48BB90"/>
<path d="M62.9844 41.7206H37.9101C37.7695 41.7336 37.6277 41.717 37.4939 41.6717C37.36 41.6265 37.237 41.5537 37.1327 41.458C37.0283 41.3623 36.945 41.2457 36.888 41.1158C36.831 40.9858 36.8015 40.8454 36.8015 40.7033C36.8015 40.5613 36.831 40.4208 36.888 40.2909C36.945 40.1609 37.0283 40.0443 37.1327 39.9486C37.237 39.8529 37.36 39.7801 37.4939 39.7349C37.6277 39.6897 37.7695 39.673 37.9101 39.6861H62.9844C63.125 39.673 63.2668 39.6897 63.4006 39.7349C63.5345 39.7801 63.6575 39.8529 63.7619 39.9486C63.8662 40.0443 63.9495 40.1609 64.0065 40.2909C64.0635 40.4208 64.093 40.5613 64.093 40.7033C64.093 40.8454 64.0635 40.9858 64.0065 41.1158C63.9495 41.2457 63.8662 41.3623 63.7619 41.458C63.6575 41.5537 63.5345 41.6265 63.4006 41.6717C63.2668 41.717 63.125 41.7336 62.9844 41.7206Z" fill="#48BB90"/>
</g>
<defs>
<clipPath id="clip0_73_147">
<rect width="64" height="47" fill="white"/>
</clipPath>
</defs>
</svg>
