<svg width="63" height="47" viewBox="0 0 63 47" fill="none" xmlns="http://www.w3.org/2000/svg">
<g clip-path="url(#clip0_73_120)">
<path d="M12.2705 41.8816H11.8282C10.1149 41.7349 8.52108 40.9444 7.36866 39.6697C6.21624 38.395 5.59103 36.7311 5.61928 35.014V5.84573C5.19469 5.79665 4.80319 5.59271 4.51992 5.27305C4.23665 4.95338 4.08155 4.54051 4.08439 4.11365V1.67141C4.08439 1.21204 4.26711 0.771472 4.59236 0.446644C4.91762 0.121816 5.35876 -0.0606689 5.81873 -0.0606689H18.8263C19.2863 -0.0606689 19.7274 0.121816 20.0527 0.446644C20.3779 0.771472 20.5606 1.21204 20.5606 1.67141V4.11365C20.5635 4.54051 20.4084 4.95338 20.1251 5.27305C19.8418 5.59271 19.4503 5.79665 19.0258 5.84573V35.2305C19.0238 36.1408 18.8358 37.0412 18.4735 37.8766C18.1112 38.712 17.5821 39.4648 16.9185 40.0889C15.6633 41.2701 13.9949 41.9136 12.2705 41.8816ZM6.12224 3.77588H6.63387C6.76898 3.77588 6.90275 3.8026 7.02747 3.8545C7.15218 3.90639 7.26538 3.98245 7.36051 4.07826C7.45564 4.17408 7.53083 4.28775 7.58174 4.41274C7.63265 4.53773 7.65828 4.67154 7.65713 4.80647V35.014C7.63557 36.2121 8.07195 37.3733 8.87746 38.2615C9.68296 39.1496 10.7971 39.6978 11.993 39.7945C12.6227 39.8372 13.2545 39.7502 13.8491 39.5389C14.4437 39.3275 14.9885 38.9964 15.4496 38.5659C15.9106 38.1355 16.2782 37.615 16.5294 37.0367C16.7806 36.4585 16.9101 35.8348 16.9099 35.2045V4.80647C16.9087 4.67154 16.9343 4.53773 16.9852 4.41274C17.0361 4.28775 17.1113 4.17408 17.2065 4.07826C17.3016 3.98245 17.4148 3.90639 17.5395 3.8545C17.6642 3.8026 17.798 3.77588 17.9331 3.77588H18.4447V2.0438H6.12224V3.77588Z" fill="#48BB90"/>
<path d="M13.181 5.85445H6.63388C6.491 5.86757 6.34695 5.85079 6.21093 5.80518C6.07491 5.75958 5.94991 5.68613 5.84391 5.58956C5.73791 5.49299 5.65323 5.37539 5.5953 5.2443C5.53737 5.1132 5.50745 4.97149 5.50745 4.82819C5.50745 4.6849 5.53737 4.54317 5.5953 4.41207C5.65323 4.28098 5.73791 4.16339 5.84391 4.06681C5.94991 3.97024 6.07491 3.89681 6.21093 3.8512C6.34695 3.80559 6.491 3.78882 6.63388 3.80194H13.181C13.4373 3.82547 13.6755 3.94377 13.8489 4.13363C14.0223 4.32349 14.1185 4.5712 14.1185 4.82819C14.1185 5.08518 14.0223 5.3329 13.8489 5.52276C13.6755 5.71262 13.4373 5.83091 13.181 5.85445Z" fill="#48BB90"/>
<path d="M6.63384 19.6678C6.46265 19.6684 6.29394 19.6268 6.14267 19.5468C5.99141 19.4667 5.86226 19.3506 5.76667 19.2088C5.61765 18.982 5.56412 18.7058 5.61769 18.4399C5.67126 18.174 5.82761 17.94 6.05284 17.7885C7.07136 17.1385 8.21085 16.7006 9.40295 16.5012C10.5951 16.3018 11.8152 16.3449 12.9902 16.628C14.6193 17.1292 16.2962 17.46 17.9938 17.6152C18.1283 17.623 18.2599 17.6571 18.3811 17.7158C18.5023 17.7744 18.6107 17.8564 18.7001 17.9569C18.7896 18.0575 18.8582 18.1747 18.9022 18.3019C18.9462 18.429 18.9646 18.5635 18.9564 18.6978C18.9508 18.8324 18.9185 18.9646 18.8612 19.0866C18.8039 19.2086 18.7228 19.318 18.6227 19.4083C18.5225 19.4986 18.4054 19.5681 18.278 19.6127C18.1507 19.6572 18.0157 19.6759 17.8811 19.6678C16.0249 19.504 14.191 19.147 12.4092 18.6025C10.6283 18.1958 8.75869 18.507 7.20618 19.4686C7.03847 19.5884 6.8398 19.6575 6.63384 19.6678Z" fill="#48BB90"/>
<path d="M11.1259 24.4137C11.8682 24.4137 12.47 23.8127 12.47 23.0714C12.47 22.33 11.8682 21.729 11.1259 21.729C10.3835 21.729 9.78174 22.33 9.78174 23.0714C9.78174 23.8127 10.3835 24.4137 11.1259 24.4137Z" fill="#48BB90"/>
<path d="M14.9414 29.9477C14.9414 30.119 14.8905 30.2864 14.7952 30.4289C14.6999 30.5713 14.5645 30.6823 14.4061 30.7478C14.2476 30.8134 14.0732 30.8305 13.905 30.7971C13.7368 30.7637 13.5823 30.6812 13.461 30.5601C13.3397 30.439 13.2572 30.2847 13.2237 30.1167C13.1902 29.9487 13.2074 29.7745 13.273 29.6163C13.3387 29.458 13.4498 29.3228 13.5924 29.2276C13.735 29.1325 13.9027 29.0817 14.0742 29.0817C14.3042 29.0817 14.5248 29.1729 14.6874 29.3353C14.85 29.4977 14.9414 29.718 14.9414 29.9477Z" fill="#48BB90"/>
<path d="M11.1258 35.6463C11.7389 35.6463 12.2358 35.15 12.2358 34.5377C12.2358 33.9255 11.7389 33.4292 11.1258 33.4292C10.5128 33.4292 10.0159 33.9255 10.0159 34.5377C10.0159 35.15 10.5128 35.6463 11.1258 35.6463Z" fill="#48BB90"/>
<path d="M31.3396 41.8817H30.8886C29.1776 41.7328 27.5869 40.9411 26.4377 39.6664C25.2885 38.3917 24.6664 36.7289 24.697 35.014V5.84573C24.2709 5.79864 23.8773 5.59555 23.5922 5.27569C23.3072 4.95582 23.1509 4.54185 23.1535 4.11365V1.67141C23.1535 1.21204 23.3362 0.771472 23.6615 0.446644C23.9867 0.121816 24.4278 -0.0606689 24.8878 -0.0606689H37.8954C38.3554 -0.0606689 38.7965 0.121816 39.1217 0.446644C39.447 0.771472 39.6297 1.21204 39.6297 1.67141V4.11365C39.6326 4.54051 39.4775 4.95338 39.1942 5.27305C38.9109 5.59271 38.5194 5.79665 38.0948 5.84573V35.2305C38.0928 36.1408 37.9049 37.0412 37.5426 37.8766C37.1803 38.712 36.6512 39.4648 35.9876 40.0889C34.7329 41.2709 33.0641 41.9146 31.3396 41.8817ZM25.1827 3.77588H25.6943C25.968 3.77588 26.2304 3.88447 26.424 4.07775C26.6175 4.27102 26.7262 4.53314 26.7262 4.80647V35.014C26.7018 36.2057 27.1314 37.3623 27.9283 38.2498C28.7252 39.1373 29.8298 39.6894 31.0187 39.7945C31.6484 39.8372 32.2802 39.7502 32.8748 39.5389C33.4694 39.3275 34.0142 38.9964 34.4753 38.5659C34.9364 38.1355 35.3039 37.615 35.5551 37.0367C35.8063 36.4585 35.9358 35.8348 35.9356 35.2045V4.80647C35.9344 4.67154 35.9601 4.53773 36.011 4.41274C36.0619 4.28775 36.1371 4.17408 36.2322 4.07826C36.3273 3.98245 36.4405 3.90639 36.5652 3.8545C36.69 3.8026 36.8237 3.77588 36.9588 3.77588H37.4705V2.0438H25.1827V3.77588Z" fill="#48BB90"/>
<path d="M32.2414 5.85439H25.6943C25.438 5.83086 25.1998 5.71256 25.0264 5.5227C24.853 5.33284 24.7568 5.08513 24.7568 4.82814C24.7568 4.57114 24.853 4.32343 25.0264 4.13357C25.1998 3.94371 25.438 3.82541 25.6943 3.80188H32.2414C32.4977 3.82541 32.7359 3.94371 32.9093 4.13357C33.0827 4.32343 33.1788 4.57114 33.1788 4.82814C33.1788 5.08513 33.0827 5.33284 32.9093 5.5227C32.7359 5.71256 32.4977 5.83086 32.2414 5.85439Z" fill="#48BB90"/>
<path d="M25.6943 15.5715C25.4723 15.5749 25.2552 15.506 25.0757 15.3753C24.8963 15.2447 24.7643 15.0592 24.6997 14.847C24.6351 14.6348 24.6413 14.4074 24.7175 14.1991C24.7937 13.9907 24.9357 13.8128 25.122 13.6922C25.2608 13.6056 28.4693 11.5097 32.016 12.5403C33.6471 13.034 35.3231 13.3647 37.0196 13.5276C37.154 13.535 37.2856 13.5688 37.4069 13.6269C37.5282 13.6851 37.6369 13.7666 37.7267 13.8667C37.8164 13.9668 37.8856 14.0837 37.9302 14.2105C37.9748 14.3373 37.9939 14.4716 37.9865 14.6058C37.9791 14.74 37.9453 14.8715 37.887 14.9926C37.8288 15.1138 37.7472 15.2223 37.6469 15.312C37.5467 15.4016 37.4297 15.4707 37.3028 15.5152C37.1758 15.5597 37.0413 15.5789 36.9069 15.5715C35.0506 15.4137 33.2164 15.0595 31.435 14.5149C30.5533 14.3106 29.64 14.282 28.7472 14.4306C27.8544 14.5792 26.9997 14.9021 26.232 15.3809C26.0738 15.4928 25.8877 15.5588 25.6943 15.5715Z" fill="#48BB90"/>
<path d="M31.1141 23.0713C31.1141 23.3368 31.0353 23.5963 30.8876 23.817C30.7399 24.0378 30.53 24.2098 30.2844 24.3114C30.0388 24.413 29.7685 24.4396 29.5078 24.3878C29.2471 24.336 29.0076 24.2082 28.8196 24.0205C28.6316 23.8327 28.5036 23.5935 28.4517 23.3332C28.3999 23.0728 28.4265 22.8028 28.5282 22.5576C28.6299 22.3123 28.8022 22.1026 29.0233 21.9551C29.2443 21.8076 29.5042 21.7289 29.77 21.7289C29.9469 21.7278 30.1222 21.7617 30.2858 21.8287C30.4493 21.8958 30.598 21.9946 30.723 22.1195C30.8481 22.2444 30.947 22.3928 31.0142 22.5562C31.0813 22.7196 31.1153 22.8947 31.1141 23.0713Z" fill="#48BB90"/>
<path d="M34.0018 29.9477C34.0018 30.119 33.9509 30.2864 33.8556 30.4289C33.7604 30.5713 33.6249 30.6823 33.4665 30.7478C33.308 30.8134 33.1337 30.8305 32.9654 30.7971C32.7972 30.7637 32.6427 30.6812 32.5214 30.5601C32.4002 30.439 32.3176 30.2847 32.2841 30.1167C32.2507 29.9487 32.2678 29.7745 32.3335 29.6163C32.3991 29.458 32.5102 29.3228 32.6528 29.2276C32.7954 29.1325 32.9631 29.0817 33.1346 29.0817C33.3646 29.0817 33.5852 29.1729 33.7478 29.3353C33.9104 29.4977 34.0018 29.718 34.0018 29.9477Z" fill="#48BB90"/>
<path d="M34.0018 18.2388C34.0018 18.4101 33.9509 18.5776 33.8556 18.72C33.7604 18.8624 33.6249 18.9734 33.4665 19.039C33.308 19.1045 33.1337 19.1216 32.9654 19.0882C32.7972 19.0548 32.6427 18.9723 32.5214 18.8512C32.4002 18.7301 32.3176 18.5758 32.2841 18.4078C32.2507 18.2398 32.2678 18.0657 32.3335 17.9074C32.3991 17.7492 32.5102 17.6139 32.6528 17.5187C32.7954 17.4236 32.9631 17.3728 33.1346 17.3728C33.3646 17.3728 33.5852 17.464 33.7478 17.6265C33.9104 17.7889 34.0018 18.0092 34.0018 18.2388Z" fill="#48BB90"/>
<path d="M30.1863 35.6463C30.7993 35.6463 31.2963 35.15 31.2963 34.5377C31.2963 33.9255 30.7993 33.4292 30.1863 33.4292C29.5733 33.4292 29.0763 33.9255 29.0763 34.5377C29.0763 35.15 29.5733 35.6463 30.1863 35.6463Z" fill="#48BB90"/>
<path d="M50.4 41.8817H49.9491C48.2412 41.7286 46.6547 40.9351 45.5091 39.6609C44.3635 38.3866 43.7438 36.7262 43.7748 35.014V5.84573C43.3502 5.79665 42.9587 5.59271 42.6755 5.27305C42.3922 4.95338 42.2371 4.54051 42.2399 4.11365V1.67141C42.2399 1.21204 42.4226 0.771472 42.7479 0.446644C43.0731 0.121816 43.5143 -0.0606689 43.9742 -0.0606689H56.9818C57.5975 -0.0606689 59.3752 0.35503 59.3752 1.67141V4.11365C59.3752 5.30013 57.875 5.75047 57.1553 5.84573V35.2305C57.1532 36.1408 56.9653 37.0412 56.603 37.8766C56.2407 38.712 55.7116 39.4648 55.048 40.0889C53.7933 41.2709 52.1245 41.9146 50.4 41.8817ZM44.2518 3.77588H44.7547C45.0284 3.77588 45.2909 3.88447 45.4844 4.07775C45.6779 4.27102 45.7866 4.53314 45.7866 4.80647V35.014C45.763 36.2126 46.1987 37.3751 47.0046 38.2636C47.8105 39.1522 48.9258 39.6998 50.1225 39.7945C50.7522 39.8372 51.384 39.7502 51.9786 39.5389C52.5732 39.3275 53.118 38.9964 53.5791 38.5659C54.0402 38.1355 54.4077 37.615 54.6589 37.0367C54.9101 36.4585 55.0396 35.8348 55.0394 35.2045V4.80647C55.0382 4.67154 55.0638 4.53773 55.1147 4.41274C55.1657 4.28775 55.2409 4.17408 55.336 4.07826C55.4311 3.98245 55.5443 3.90639 55.669 3.8545C55.7937 3.8026 55.9275 3.77588 56.0626 3.77588H56.9298C57.0454 3.76423 57.159 3.73805 57.268 3.69794V2.10443C57.1564 2.06119 57.0399 2.03209 56.9211 2.01782H44.2518V3.77588Z" fill="#48BB90"/>
<path d="M51.3018 5.85439H44.7547C44.4985 5.83086 44.2603 5.71256 44.0868 5.5227C43.9134 5.33284 43.8173 5.08513 43.8173 4.82814C43.8173 4.57114 43.9134 4.32343 44.0868 4.13357C44.2603 3.94371 44.4985 3.82541 44.7547 3.80188H51.3018C51.5581 3.82541 51.7963 3.94371 51.9697 4.13357C52.1431 4.32343 52.2393 4.57114 52.2393 4.82814C52.2393 5.08513 52.1431 5.33284 51.9697 5.5227C51.7963 5.71256 51.5581 5.83086 51.3018 5.85439Z" fill="#48BB90"/>
<path d="M44.7548 23.08C44.5832 23.083 44.4136 23.0425 44.2619 22.9622C44.1102 22.8819 43.9815 22.7645 43.8876 22.621C43.735 22.3947 43.6785 22.1171 43.7305 21.8492C43.7826 21.5813 43.9388 21.345 44.1651 21.192C44.3038 21.1054 47.5124 19.0096 51.0591 20.0402C52.689 20.5383 54.3656 20.8691 56.0627 21.0275C56.3341 21.0424 56.5884 21.1644 56.7697 21.3666C56.9511 21.5688 57.0445 21.8347 57.0296 22.1057C57.0146 22.3767 56.8925 22.6307 56.69 22.8118C56.4875 22.9929 56.2213 23.0863 55.9499 23.0713C54.0965 22.9139 52.2651 22.5597 50.4868 22.0148C48.7059 21.608 46.8363 21.9192 45.2837 22.8808C45.1288 22.9939 44.9459 23.0628 44.7548 23.08Z" fill="#48BB90"/>
<path d="M49.845 26.6567C49.845 26.9222 49.7661 27.1817 49.6185 27.4025C49.4708 27.6232 49.2608 27.7953 49.0152 27.8969C48.7696 27.9985 48.4994 28.0251 48.2386 27.9733C47.9779 27.9215 47.7384 27.7936 47.5504 27.6059C47.3624 27.4181 47.2344 27.179 47.1826 26.9186C47.1307 26.6582 47.1573 26.3883 47.2591 26.143C47.3608 25.8977 47.5331 25.6881 47.7541 25.5406C47.9751 25.3931 48.235 25.3143 48.5009 25.3143C48.8573 25.3143 49.1992 25.4558 49.4513 25.7075C49.7034 25.9592 49.845 26.3007 49.845 26.6567Z" fill="#48BB90"/>
<path d="M53.3137 31.1948C53.3137 31.3661 53.2628 31.5335 53.1675 31.6759C53.0723 31.8183 52.9368 31.9294 52.7784 31.9949C52.6199 32.0605 52.4456 32.0776 52.2773 32.0442C52.1091 32.0108 51.9546 31.9283 51.8333 31.8072C51.7121 31.6861 51.6295 31.5317 51.596 31.3637C51.5625 31.1957 51.5797 31.0216 51.6454 30.8634C51.711 30.7051 51.8221 30.5699 51.9647 30.4747C52.1073 30.3795 52.275 30.3287 52.4465 30.3287C52.6765 30.3287 52.8971 30.42 53.0597 30.5824C53.2223 30.7448 53.3137 30.9651 53.3137 31.1948Z" fill="#48BB90"/>
<path d="M49.2467 37.1271C49.8597 37.1271 50.3567 36.6308 50.3567 36.0186C50.3567 35.4063 49.8597 34.91 49.2467 34.91C48.6337 34.91 48.1367 35.4063 48.1367 36.0186C48.1367 36.6308 48.6337 37.1271 49.2467 37.1271Z" fill="#48BB90"/>
<path d="M59.9302 47H3.07846C2.262 47 1.47898 46.6761 0.901661 46.0995C0.324338 45.5229 0 44.7409 0 43.9256V16.2123C0 15.0799 0.450422 13.9939 1.25217 13.1932C2.05392 12.3925 3.14131 11.9427 4.27516 11.9427H6.63386C6.89011 11.9662 7.12831 12.0845 7.30173 12.2744C7.47516 12.4642 7.5713 12.7119 7.5713 12.9689C7.5713 13.2259 7.47516 13.4736 7.30173 13.6635C7.12831 13.8534 6.89011 13.9717 6.63386 13.9952H4.27516C3.68639 13.9952 3.12173 14.2288 2.70541 14.6446C2.28909 15.0603 2.0552 15.6243 2.0552 16.2123V43.9256C2.0552 44.0598 2.08166 44.1926 2.13309 44.3166C2.18451 44.4406 2.25988 44.5533 2.3549 44.6482C2.44992 44.7431 2.56273 44.8183 2.68687 44.8697C2.81102 44.9211 2.94408 44.9475 3.07846 44.9475H59.9302C60.0642 44.9475 60.1968 44.921 60.3205 44.8695C60.4442 44.8181 60.5564 44.7426 60.6507 44.6476C60.7451 44.5526 60.8196 44.4399 60.8701 44.316C60.9205 44.192 60.946 44.0593 60.9448 43.9256V16.2123C60.9448 15.9211 60.8874 15.6328 60.7758 15.3638C60.6643 15.0948 60.5007 14.8504 60.2946 14.6446C60.0884 14.4387 59.8437 14.2754 59.5744 14.164C59.305 14.0525 59.0164 13.9952 58.7248 13.9952H56.3748C56.2319 14.0083 56.0879 13.9915 55.9519 13.9459C55.8158 13.9003 55.6908 13.8269 55.5848 13.7303C55.4788 13.6337 55.3942 13.5162 55.3362 13.3851C55.2783 13.254 55.2484 13.1122 55.2484 12.9689C55.2484 12.8256 55.2783 12.6839 55.3362 12.5528C55.3942 12.4217 55.4788 12.3041 55.5848 12.2076C55.6908 12.111 55.8158 12.0376 55.9519 11.9919C56.0879 11.9463 56.2319 11.9296 56.3748 11.9427H58.7248C59.8587 11.9427 60.9461 12.3925 61.7478 13.1932C62.5496 13.9939 63 15.0799 63 16.2123V43.9256C63 44.7395 62.6769 45.5201 62.1014 46.0964C61.526 46.6728 60.7452 46.9977 59.9302 47Z" fill="#48BB90"/>
<path d="M25.6942 14.0125H17.8897C17.6335 13.989 17.3953 13.8707 17.2218 13.6808C17.0484 13.491 16.9523 13.2433 16.9523 12.9863C16.9523 12.7293 17.0484 12.4816 17.2218 12.2917C17.3953 12.1019 17.6335 11.9836 17.8897 11.96H25.6942C25.8371 11.9469 25.9812 11.9637 26.1172 12.0093C26.2532 12.0549 26.3782 12.1283 26.4842 12.2249C26.5902 12.3215 26.6749 12.4391 26.7328 12.5702C26.7908 12.7013 26.8207 12.843 26.8207 12.9863C26.8207 13.1296 26.7908 13.2713 26.7328 13.4024C26.6749 13.5335 26.5902 13.6511 26.4842 13.7476C26.3782 13.8442 26.2532 13.9177 26.1172 13.9633C25.9812 14.0089 25.8371 14.0257 25.6942 14.0125Z" fill="#48BB90"/>
<path d="M44.7547 14.0125H36.9501C36.6939 13.989 36.4557 13.8707 36.2823 13.6808C36.1088 13.491 36.0127 13.2433 36.0127 12.9863C36.0127 12.7293 36.1088 12.4816 36.2823 12.2917C36.4557 12.1019 36.6939 11.9836 36.9501 11.96H44.7547C44.8976 11.9469 45.0416 11.9637 45.1776 12.0093C45.3137 12.0549 45.4386 12.1283 45.5446 12.2249C45.6506 12.3215 45.7353 12.4391 45.7933 12.5702C45.8512 12.7013 45.8811 12.843 45.8811 12.9863C45.8811 13.1296 45.8512 13.2713 45.7933 13.4024C45.7353 13.5335 45.6506 13.6511 45.5446 13.7476C45.4386 13.8442 45.3137 13.9177 45.1776 13.9633C45.0416 14.0089 44.8976 14.0257 44.7547 14.0125Z" fill="#48BB90"/>
<path d="M25.6942 18.1002H17.8897C17.6335 18.0766 17.3953 17.9583 17.2218 17.7685C17.0484 17.5786 16.9523 17.3309 16.9523 17.0739C16.9523 16.8169 17.0484 16.5692 17.2218 16.3794C17.3953 16.1895 17.6335 16.0712 17.8897 16.0477H25.6942C25.8371 16.0345 25.9812 16.0513 26.1172 16.0969C26.2532 16.1425 26.3782 16.216 26.4842 16.3125C26.5902 16.4091 26.6749 16.5267 26.7328 16.6578C26.7908 16.7889 26.8207 16.9306 26.8207 17.0739C26.8207 17.2172 26.7908 17.3589 26.7328 17.49C26.6749 17.6211 26.5902 17.7387 26.4842 17.8353C26.3782 17.9319 26.2532 18.0053 26.1172 18.0509C25.9812 18.0965 25.8371 18.1133 25.6942 18.1002Z" fill="#48BB90"/>
<path d="M44.7547 18.1002H36.9501C36.6939 18.0766 36.4557 17.9583 36.2823 17.7685C36.1088 17.5786 36.0127 17.3309 36.0127 17.0739C36.0127 16.8169 36.1088 16.5692 36.2823 16.3794C36.4557 16.1895 36.6939 16.0712 36.9501 16.0477H44.7547C44.8976 16.0345 45.0416 16.0513 45.1776 16.0969C45.3137 16.1425 45.4386 16.216 45.5446 16.3125C45.6506 16.4091 45.7353 16.5267 45.7933 16.6578C45.8512 16.7889 45.8811 16.9306 45.8811 17.0739C45.8811 17.2172 45.8512 17.3589 45.7933 17.49C45.7353 17.6211 45.6506 17.7387 45.5446 17.8353C45.4386 17.9319 45.3137 18.0053 45.1776 18.0509C45.0416 18.0965 44.8976 18.1133 44.7547 18.1002Z" fill="#48BB90"/>
<path d="M61.9854 18.1002H56.0279C55.7717 18.0767 55.5335 17.9584 55.36 17.7686C55.1866 17.5787 55.0905 17.331 55.0905 17.074C55.0905 16.817 55.1866 16.5693 55.36 16.3794C55.5335 16.1896 55.7717 16.0713 56.0279 16.0477H61.9854C62.2416 16.0713 62.4798 16.1896 62.6532 16.3794C62.8267 16.5693 62.9228 16.817 62.9228 17.074C62.9228 17.331 62.8267 17.5787 62.6532 17.7686C62.4798 17.9584 62.2416 18.0767 61.9854 18.1002Z" fill="#48BB90"/>
<path d="M6.63387 18.1002H1.03195C0.88907 18.1133 0.745023 18.0965 0.609003 18.0509C0.472982 18.0053 0.347981 17.9319 0.24198 17.8353C0.135979 17.7387 0.051304 17.6211 -0.00662868 17.49C-0.0645613 17.3589 -0.0944824 17.2172 -0.0944824 17.0739C-0.0944824 16.9306 -0.0645613 16.7889 -0.00662868 16.6578C0.051304 16.5267 0.135979 16.4091 0.24198 16.3125C0.347981 16.216 0.472982 16.1425 0.609003 16.0969C0.745023 16.0513 0.88907 16.0345 1.03195 16.0477H6.63387C6.89012 16.0712 7.12832 16.1895 7.30175 16.3794C7.47517 16.5692 7.57131 16.8169 7.57131 17.0739C7.57131 17.3309 7.47517 17.5786 7.30175 17.7685C7.12832 17.9583 6.89012 18.0766 6.63387 18.1002Z" fill="#48BB90"/>
</g>
<defs>
<clipPath id="clip0_73_120">
<rect width="63" height="47" fill="white"/>
</clipPath>
</defs>
</svg>
