<svg width="24" height="33" viewBox="0 0 24 33" fill="none" xmlns="http://www.w3.org/2000/svg">
<path fill-rule="evenodd" clip-rule="evenodd" d="M24 12.6985C24 6.07107 18.6274 0.698486 12 0.698486C5.37258 0.698486 0 6.07107 0 12.6985C0 16.3499 2.65072 21.7197 7.93833 28.9018L8.73095 29.9658L9.54191 31.0306L10.3833 32.1134C11.0846 33.007 12.3755 33.1628 13.2677 32.4626C13.3971 32.361 13.5139 32.2443 13.6155 32.1148C20.5324 23.3002 24 16.8738 24 12.6985ZM1.54018 12.6983C1.54018 6.92144 6.22323 2.23839 12.0001 2.23839C17.7769 2.23839 22.4599 6.92144 22.4599 12.6983C22.4599 16.2634 19.9037 21.373 13.7625 29.3415L12.9761 30.3525L12.0001 31.5734L10.3834 29.5591C4.48976 21.8218 1.54018 16.1777 1.54018 12.6983ZM12.0002 7.24381C14.8354 7.24381 17.1338 9.54224 17.1338 12.3775C17.1338 15.2128 14.8354 17.5112 12.0002 17.5112C9.16489 17.5112 6.86647 15.2128 6.86647 12.3775C6.86647 9.54224 9.16489 7.24381 12.0002 7.24381ZM8.40664 12.3779C8.40664 10.3932 10.0155 8.78432 12.0002 8.78432C13.9849 8.78432 15.5938 10.3932 15.5938 12.3779C15.5938 14.3626 13.9849 15.9715 12.0002 15.9715C10.0155 15.9715 8.40664 14.3626 8.40664 12.3779Z" fill="white"/>
</svg>
