<svg width="19" height="14" viewBox="0 0 19 14" fill="none" xmlns="http://www.w3.org/2000/svg">
<path d="M17.7687 6.52361C17.1809 6.52576 16.5986 6.41037 16.0553 6.1841C15.512 5.95784 15.0186 5.62518 14.6034 5.20536L10.0313 0.589063C9.86958 0.433029 9.65445 0.345947 9.43069 0.345947C9.20694 0.345947 8.9918 0.433029 8.83008 0.589063L4.2425 5.21803C3.82762 5.63847 3.33429 5.97178 2.791 6.19871C2.24771 6.42565 1.66524 6.5417 1.07724 6.54017H0.182129L5.97576 12.3861C6.84469 13.261 8.0221 13.7523 9.24964 13.7523C10.4772 13.7523 11.6546 13.261 12.5235 12.3861L18.3287 6.52751L17.7687 6.52361Z" fill="white"/>
</svg>
