<svg width="58" height="58" viewBox="0 0 58 58" fill="none" xmlns="http://www.w3.org/2000/svg">
<g clip-path="url(#clip0_73_157)">
<path d="M18.6678 52.1044C18.3225 52.1053 17.9804 52.038 17.6612 51.9062C17.342 51.7744 17.052 51.5808 16.8079 51.3365L6.65491 41.1921C6.16308 40.698 5.88696 40.0293 5.88696 39.3321C5.88696 38.635 6.16308 37.9662 6.65491 37.4722L31.679 12.4566C31.9225 12.211 32.2123 12.0161 32.5315 11.883C32.8507 11.75 33.1931 11.6815 33.539 11.6815C33.8848 11.6815 34.2272 11.75 34.5465 11.883C34.8657 12.0161 35.1554 12.211 35.399 12.4566L45.5434 22.601C45.789 22.8445 45.9839 23.1343 46.1169 23.4535C46.2499 23.7727 46.3184 24.1151 46.3184 24.461C46.3184 24.8068 46.2499 25.1492 46.1169 25.4685C45.9839 25.7877 45.789 26.0774 45.5434 26.3209L20.5278 51.3451C20.283 51.5878 19.9927 51.7798 19.6735 51.9101C19.3544 52.0404 19.0126 52.1065 18.6678 52.1044ZM8.08827 39.7502L18.2412 49.9032C18.2969 49.9599 18.3632 50.005 18.4365 50.0358C18.5097 50.0666 18.5884 50.0824 18.6678 50.0824C18.7473 50.0824 18.826 50.0666 18.8992 50.0358C18.9725 50.005 19.0388 49.9599 19.0944 49.9032L44.11 24.8876C44.2226 24.7741 44.2857 24.6208 44.2857 24.461C44.2857 24.3012 44.2226 24.1478 44.11 24.0344L33.9656 13.8899C33.91 13.8332 33.8436 13.7881 33.7703 13.7573C33.6971 13.7265 33.6184 13.7107 33.539 13.7107C33.4595 13.7107 33.3809 13.7265 33.3076 13.7573C33.2344 13.7881 33.168 13.8332 33.1124 13.8899L8.08827 38.914C8.03151 38.9696 7.98644 39.036 7.95566 39.1093C7.92488 39.1825 7.909 39.2612 7.909 39.3406C7.909 39.4201 7.92488 39.4988 7.95566 39.572C7.98644 39.6453 8.03151 39.7116 8.08827 39.7672V39.7502Z" fill="#48BB90"/>
<path d="M10.5881 55.1333C10.3196 55.1299 10.0628 55.0229 9.87139 54.8347L3.15678 48.1201C2.96853 47.9286 2.86154 47.6718 2.85815 47.4034C2.85881 47.1344 2.96622 46.8766 3.15678 46.6867L8.36977 41.4652C8.56115 41.2776 8.81848 41.1725 9.08647 41.1725C9.35446 41.1725 9.61177 41.2776 9.80315 41.4652L16.5263 48.1883C16.6195 48.2828 16.6931 48.3947 16.7429 48.5177C16.7927 48.6407 16.8177 48.7723 16.8164 48.905C16.8162 49.1725 16.7122 49.4294 16.5263 49.6217L11.3048 54.8432C11.2103 54.9364 11.0984 55.01 10.9754 55.0598C10.8524 55.1096 10.7208 55.1346 10.5881 55.1333ZM5.2983 47.4034L10.5881 52.6932L14.3762 48.905L9.08647 43.6152L5.2983 47.4034Z" fill="#48BB90"/>
<path d="M21.927 49.4851C21.6608 49.4831 21.4062 49.3757 21.2189 49.1865L8.77933 36.7469C8.68466 36.654 8.60946 36.5431 8.55812 36.4208C8.50678 36.2985 8.48035 36.1672 8.48035 36.0345C8.48035 35.9019 8.50678 35.7705 8.55812 35.6482C8.60946 35.5259 8.68466 35.415 8.77933 35.3221L29.5119 14.5895C29.7029 14.4045 29.9584 14.301 30.2243 14.301C30.4903 14.301 30.7457 14.4045 30.9367 14.5895L43.3763 27.0291C43.4699 27.1226 43.5442 27.2336 43.5949 27.3559C43.6456 27.4781 43.6717 27.6092 43.6717 27.7415C43.6717 27.8738 43.6456 28.0049 43.5949 28.1271C43.5442 28.2494 43.4699 28.3604 43.3763 28.4539L22.6437 49.1865C22.55 49.2812 22.4383 49.3564 22.3153 49.4077C22.1923 49.4589 22.0603 49.4852 21.927 49.4851ZM10.9464 36.0729L21.9526 47.0791L41.2604 27.7799L30.2457 16.7652L10.9464 36.0729Z" fill="#48BB90"/>
<path d="M13.4463 57.9915C13.3142 57.9924 13.1833 57.9664 13.0615 57.9151C12.9398 57.8637 12.8297 57.7881 12.7382 57.6928L0.298621 45.2533C0.203946 45.1604 0.128745 45.0495 0.0774074 44.9272C0.02607 44.8049 -0.000366211 44.6735 -0.000366211 44.5409C-0.000366211 44.4082 0.02607 44.2769 0.0774074 44.1546C0.128745 44.0323 0.203946 43.9214 0.298621 43.8285C0.392127 43.7348 0.503172 43.6606 0.625416 43.6099C0.747659 43.5592 0.878694 43.5331 1.01103 43.5331C1.14336 43.5331 1.27443 43.5592 1.39667 43.6099C1.51891 43.6606 1.62996 43.7348 1.72346 43.8285L14.163 56.268C14.2566 56.3615 14.3309 56.4726 14.3816 56.5948C14.4323 56.7171 14.4584 56.8481 14.4584 56.9804C14.4584 57.1128 14.4323 57.2438 14.3816 57.366C14.3309 57.4883 14.2566 57.5993 14.163 57.6928C14.0704 57.7892 13.9591 57.8654 13.8358 57.9168C13.7125 57.9681 13.5799 57.9936 13.4463 57.9915Z" fill="#48BB90"/>
<path d="M42.2245 21.7137C41.9557 21.7121 41.6982 21.6048 41.5078 21.4151L36.5764 16.4495C36.3888 16.2581 36.2837 16.0008 36.2837 15.7328C36.2837 15.4648 36.3888 15.2075 36.5764 15.0161L36.9688 14.6237C37.8246 13.8392 38.9501 13.4154 40.1107 13.4406C41.2714 13.4659 42.3774 13.9381 43.1983 14.759C44.0192 15.5799 44.4915 16.686 44.5167 17.8466C44.5419 19.0072 44.1181 20.1327 43.3336 20.9885L42.9412 21.3809C42.8497 21.4811 42.7393 21.5621 42.6162 21.6192C42.4932 21.6764 42.3601 21.7085 42.2245 21.7137ZM38.752 15.8011L42.1648 19.2138C42.4871 18.7356 42.6335 18.1604 42.579 17.5862C42.5246 17.0121 42.2726 16.4747 41.8662 16.0656C41.4567 15.6699 40.9234 15.4275 40.3561 15.3794C39.7888 15.3312 39.2223 15.4801 38.752 15.8011Z" fill="#48BB90"/>
<path d="M34.1192 26.7562C33.9864 26.7579 33.8546 26.7331 33.7316 26.6833C33.6085 26.6335 33.4966 26.5597 33.4025 26.4661L29.1365 22.2001C29.043 22.106 28.9688 21.9944 28.9184 21.8716C28.868 21.7489 28.8423 21.6174 28.8427 21.4847C28.8431 21.352 28.8696 21.2207 28.9207 21.0982C28.9719 20.9758 29.0466 20.8646 29.1408 20.771C29.2349 20.6775 29.3465 20.6034 29.4693 20.5529C29.592 20.5025 29.7235 20.4768 29.8562 20.4772C29.9889 20.4776 30.1202 20.5041 30.2427 20.5553C30.3651 20.6064 30.4763 20.6812 30.5699 20.7753L34.8358 25.0413C34.9728 25.1829 35.0651 25.3617 35.1014 25.5553C35.1377 25.749 35.1164 25.9491 35.0401 26.1307C34.9638 26.3124 34.8359 26.4677 34.6722 26.5774C34.5085 26.687 34.3162 26.7462 34.1192 26.7476V26.7562Z" fill="#48BB90"/>
<path d="M27.7458 29.8276C27.4773 29.8242 27.2205 29.7172 27.0291 29.529L24.3842 26.8841C24.1952 26.694 24.0895 26.4366 24.0903 26.1686C24.0911 25.9006 24.1984 25.6439 24.3885 25.455C24.5785 25.266 24.8359 25.1603 25.1039 25.1611C25.3719 25.1619 25.6286 25.2692 25.8176 25.4592L28.4625 28.1041C28.5561 28.1976 28.6304 28.3087 28.6811 28.4309C28.7318 28.5532 28.7578 28.6842 28.7578 28.8165C28.7578 28.9489 28.7318 29.0799 28.6811 29.2022C28.6304 29.3244 28.5561 29.4355 28.4625 29.529C28.272 29.7187 28.0146 29.826 27.7458 29.8276Z" fill="#48BB90"/>
<path d="M24.6829 36.1925C24.5501 36.1942 24.4184 36.1694 24.2953 36.1196C24.1722 36.0698 24.0604 35.9959 23.9662 35.9023L19.7002 31.6364C19.5113 31.4463 19.4056 31.189 19.4064 30.921C19.4072 30.653 19.5144 30.3962 19.7045 30.2073C19.8946 30.0184 20.1519 29.9127 20.4199 29.9135C20.6879 29.9143 20.9446 30.0215 21.1336 30.2116L25.3996 34.4775C25.4945 34.5712 25.5699 34.6828 25.6213 34.8058C25.6728 34.9288 25.6992 35.0609 25.6992 35.1942C25.6992 35.3276 25.6728 35.4596 25.6213 35.5826C25.5699 35.7056 25.4945 35.8172 25.3996 35.9109C25.305 36.0033 25.1928 36.0759 25.0697 36.1242C24.9466 36.1726 24.8151 36.1958 24.6829 36.1925Z" fill="#48BB90"/>
<path d="M18.3095 39.2639C18.0407 39.2623 17.7832 39.155 17.5928 38.9653L14.9479 36.3204C14.8544 36.2262 14.7802 36.1146 14.7298 35.9919C14.6794 35.8691 14.6537 35.7376 14.6541 35.6049C14.6545 35.4722 14.681 35.3409 14.7321 35.2184C14.7833 35.096 14.8581 34.9848 14.9522 34.8912C15.0463 34.7977 15.1579 34.7236 15.2807 34.6732C15.4034 34.6228 15.5349 34.597 15.6676 34.5974C15.8003 34.5978 15.9316 34.6244 16.0541 34.6755C16.1765 34.7267 16.2877 34.8014 16.3813 34.8955L19.0262 37.5404C19.1198 37.6339 19.1941 37.745 19.2448 37.8672C19.2955 37.9895 19.3216 38.1205 19.3216 38.2528C19.3216 38.3852 19.2955 38.5162 19.2448 38.6384C19.1941 38.7607 19.1198 38.8718 19.0262 38.9653C18.8357 39.155 18.5783 39.2623 18.3095 39.2639Z" fill="#48BB90"/>
<path d="M42.617 16.3898C42.3485 16.3864 42.0918 16.2794 41.9003 16.0911C41.7127 15.8998 41.6077 15.6425 41.6077 15.3745C41.6077 15.1065 41.7127 14.8492 41.9003 14.6578L56.2766 0.290023C56.3701 0.196379 56.4812 0.122088 56.6034 0.0714001C56.7257 0.0207126 56.8567 -0.00537109 56.989 -0.00537109C57.1214 -0.00537109 57.2524 0.0207126 57.3746 0.0714001C57.4969 0.122088 57.6079 0.196379 57.7014 0.290023C57.889 0.481406 57.9941 0.73871 57.9941 1.0067C57.9941 1.27469 57.889 1.53201 57.7014 1.72339L43.3337 16.0911C43.1433 16.2809 42.8858 16.3882 42.617 16.3898Z" fill="#48BB90"/>
<path d="M52.2666 57.9914H1.00679C0.754679 57.9682 0.52032 57.8517 0.349689 57.6647C0.179059 57.4776 0.0844727 57.2336 0.0844727 56.9804C0.0844727 56.7272 0.179059 56.4832 0.349689 56.2961C0.52032 56.1091 0.754679 55.9925 1.00679 55.9694H52.2666C52.5187 55.9925 52.753 56.1091 52.9237 56.2961C53.0943 56.4832 53.1889 56.7272 53.1889 56.9804C53.1889 57.2336 53.0943 57.4776 52.9237 57.6647C52.753 57.8517 52.5187 57.9682 52.2666 57.9914Z" fill="#48BB90"/>
</g>
<defs>
<clipPath id="clip0_73_157">
<rect width="58" height="58" fill="white"/>
</clipPath>
</defs>
</svg>
